<group>
trigger=attack
ampeg_attack=0.004000
ampeg_release=0.350000
amp_veltrack=0

<region>
sample=Harpsichord, English/Sustains/Lute/ZuckermannKitHarpsi_Lute_Sus_A#0_rr1.wav
pitch_keycenter=34
lokey=34
hikey=35
volume=1.763723

<region>
sample=Harpsichord, English/Sustains/Lute/ZuckermannKitHarpsi_Lute_Sus_C1_rr1.wav
pitch_keycenter=36
lokey=36
hikey=37
volume=1.832042

<region>
sample=Harpsichord, English/Sustains/Lute/ZuckermannKitHarpsi_Lute_Sus_D1_rr1.wav
pitch_keycenter=38
lokey=38
hikey=39
volume=0.767934

<region>
sample=Harpsichord, English/Sustains/Lute/ZuckermannKitHarpsi_Lute_Sus_E1_rr1.wav
pitch_keycenter=40
lokey=40
hikey=41
offset=146
volume=-2.484285

<region>
sample=Harpsichord, English/Sustains/Lute/ZuckermannKitHarpsi_Lute_Sus_F#1_rr1.wav
pitch_keycenter=42
lokey=42
hikey=43
volume=-1

<region>
sample=Harpsichord, English/Sustains/Lute/ZuckermannKitHarpsi_Lute_Sus_G#1_rr1.wav
pitch_keycenter=44
lokey=44
hikey=45
volume=2.157181

<region>
sample=Harpsichord, English/Sustains/Lute/ZuckermannKitHarpsi_Lute_Sus_A#1_rr1.wav
pitch_keycenter=46
lokey=46
hikey=48
offset=44
volume=-4.643962

<region>
sample=Harpsichord, English/Sustains/Lute/ZuckermannKitHarpsi_Lute_Sus_D2_rr1.wav
pitch_keycenter=50
lokey=49
hikey=51
volume=1

<region>
sample=Harpsichord, English/Sustains/Lute/ZuckermannKitHarpsi_Lute_Sus_E2_rr1.wav
pitch_keycenter=52
lokey=52
hikey=53
volume=1.148020

<region>
sample=Harpsichord, English/Sustains/Lute/ZuckermannKitHarpsi_Lute_Sus_F#2_rr1.wav
pitch_keycenter=54
lokey=54
hikey=55
offset=94
volume=-3.111599

<region>
sample=Harpsichord, English/Sustains/Lute/ZuckermannKitHarpsi_Lute_Sus_G#2_rr1.wav
pitch_keycenter=56
lokey=56
hikey=57
volume=9.348472

<region>
sample=Harpsichord, English/Sustains/Lute/ZuckermannKitHarpsi_Lute_Sus_A#2_rr1.wav
pitch_keycenter=58
lokey=58
hikey=59
volume=-0.417280

<region>
sample=Harpsichord, English/Sustains/Lute/ZuckermannKitHarpsi_Lute_Sus_C3_rr1.wav
pitch_keycenter=60
lokey=60
hikey=61
volume=-2.726479

<region>
sample=Harpsichord, English/Sustains/Lute/ZuckermannKitHarpsi_Lute_Sus_D3_rr1.wav
pitch_keycenter=62
lokey=62
hikey=63
volume=-2.188249

<region>
sample=Harpsichord, English/Sustains/Lute/ZuckermannKitHarpsi_Lute_Sus_E3_rr1.wav
pitch_keycenter=64
lokey=64
hikey=65
volume=1.042084

<region>
sample=Harpsichord, English/Sustains/Lute/ZuckermannKitHarpsi_Lute_Sus_F#3_rr1.wav
pitch_keycenter=66
lokey=66
hikey=67
volume=3

<region>
sample=Harpsichord, English/Sustains/Lute/ZuckermannKitHarpsi_Lute_Sus_G#3_rr1.wav
pitch_keycenter=68
lokey=68
hikey=69
volume=1.961144

<region>
sample=Harpsichord, English/Sustains/Lute/ZuckermannKitHarpsi_Lute_Sus_A#3_rr1.wav
pitch_keycenter=70
lokey=70
hikey=71
volume=-2

<region>
sample=Harpsichord, English/Sustains/Lute/ZuckermannKitHarpsi_Lute_Sus_C4_rr1.wav
pitch_keycenter=72
lokey=72
hikey=73
volume=3

<region>
sample=Harpsichord, English/Sustains/Lute/ZuckermannKitHarpsi_Lute_Sus_D4_rr1.wav
pitch_keycenter=74
lokey=74
hikey=75
volume=-1.510287

<region>
sample=Harpsichord, English/Sustains/Lute/ZuckermannKitHarpsi_Lute_Sus_E4_rr1.wav
pitch_keycenter=76
lokey=76
hikey=77
volume=-0.737975

<region>
sample=Harpsichord, English/Sustains/Lute/ZuckermannKitHarpsi_Lute_Sus_F#4_rr1.wav
pitch_keycenter=78
lokey=78
hikey=79
volume=0.148233

<region>
sample=Harpsichord, English/Sustains/Lute/ZuckermannKitHarpsi_Lute_Sus_G#4_rr1.wav
pitch_keycenter=80
lokey=80
hikey=81
volume=-0.220671

<region>
sample=Harpsichord, English/Sustains/Lute/ZuckermannKitHarpsi_Lute_Sus_A#4_rr1.wav
pitch_keycenter=82
lokey=82
hikey=83
volume=-1.170932

<region>
sample=Harpsichord, English/Sustains/Lute/ZuckermannKitHarpsi_Lute_Sus_C5_rr1.wav
pitch_keycenter=84
lokey=84
hikey=85
volume=2

<region>
sample=Harpsichord, English/Sustains/Lute/ZuckermannKitHarpsi_Lute_Sus_D5_rr1.wav
pitch_keycenter=86
lokey=86
hikey=87
volume=2.732660

<region>
sample=Harpsichord, English/Sustains/Lute/ZuckermannKitHarpsi_Lute_Sus_E5_rr1.wav
pitch_keycenter=88
lokey=88
hikey=89
volume=4.462697

<group>
trigger=release
//ampeg_attack=0.100000
ampeg_release=0.300000
amp_veltrack=0

<region>
sample=Harpsichord, English/Releases/Lute/ZuckermannKitHarpsi_Lute_Rel_A#0_rr1.wav
pitch_keycenter=34
lokey=34
hikey=35
volume=-7.090658

<region>
sample=Harpsichord, English/Releases/Lute/ZuckermannKitHarpsi_Lute_Rel_C1_rr1.wav
pitch_keycenter=36
lokey=36
hikey=37
volume=-4.524784

<region>
sample=Harpsichord, English/Releases/Lute/ZuckermannKitHarpsi_Lute_Rel_D1_rr1.wav
pitch_keycenter=38
lokey=38
hikey=39
volume=-6.702070

<region>
sample=Harpsichord, English/Releases/Lute/ZuckermannKitHarpsi_Lute_Rel_E1_rr1.wav
pitch_keycenter=40
lokey=40
hikey=41
volume=-8.904123

<region>
sample=Harpsichord, English/Releases/Lute/ZuckermannKitHarpsi_Lute_Rel_F#1_rr1.wav
pitch_keycenter=42
lokey=42
hikey=43
volume=-11.072442

<region>
sample=Harpsichord, English/Releases/Lute/ZuckermannKitHarpsi_Lute_Rel_G#1_rr1.wav
pitch_keycenter=44
lokey=44
hikey=45
volume=-6.487487

<region>
sample=Harpsichord, English/Releases/Lute/ZuckermannKitHarpsi_Lute_Rel_A#1_rr1.wav
pitch_keycenter=46
lokey=46
hikey=48
volume=-8.941996

<region>
sample=Harpsichord, English/Releases/Lute/ZuckermannKitHarpsi_Lute_Rel_D2_rr1.wav
pitch_keycenter=50
lokey=49
hikey=51
volume=-8.002517

<region>
sample=Harpsichord, English/Releases/Lute/ZuckermannKitHarpsi_Lute_Rel_E2_rr1.wav
pitch_keycenter=52
lokey=52
hikey=53
volume=-7.304161

<region>
sample=Harpsichord, English/Releases/Lute/ZuckermannKitHarpsi_Lute_Rel_G2_rr1.wav
pitch_keycenter=55
lokey=54
hikey=55
volume=-6.645541

<region>
sample=Harpsichord, English/Releases/Lute/ZuckermannKitHarpsi_Lute_Rel_G#2_rr1.wav
pitch_keycenter=56
lokey=56
hikey=56
volume=-4.141532

<region>
sample=Harpsichord, English/Releases/Lute/ZuckermannKitHarpsi_Lute_Rel_A2_rr1.wav
pitch_keycenter=57
lokey=57
hikey=58
volume=-8.679448

<region>
sample=Harpsichord, English/Releases/Lute/ZuckermannKitHarpsi_Lute_Rel_C3_rr1.wav
pitch_keycenter=60
lokey=59
hikey=61
volume=-12.332802

<region>
sample=Harpsichord, English/Releases/Lute/ZuckermannKitHarpsi_Lute_Rel_D3_rr1.wav
pitch_keycenter=62
lokey=62
hikey=63
volume=-5.347350

<region>
sample=Harpsichord, English/Releases/Lute/ZuckermannKitHarpsi_Lute_Rel_E3_rr1.wav
pitch_keycenter=64
lokey=64
hikey=65
volume=-7.282378

<region>
sample=Harpsichord, English/Releases/Lute/ZuckermannKitHarpsi_Lute_Rel_F#3_rr1.wav
pitch_keycenter=66
lokey=66
hikey=67
volume=-7.393965

<region>
sample=Harpsichord, English/Releases/Lute/ZuckermannKitHarpsi_Lute_Rel_G#3_rr1.wav
pitch_keycenter=68
lokey=68
hikey=69
volume=-10.717479

<region>
sample=Harpsichord, English/Releases/Lute/ZuckermannKitHarpsi_Lute_Rel_A#3_rr1.wav
pitch_keycenter=70
lokey=70
hikey=71
volume=-4.627871

<region>
sample=Harpsichord, English/Releases/Lute/ZuckermannKitHarpsi_Lute_Rel_C4_rr1.wav
pitch_keycenter=72
lokey=72
hikey=73
volume=-5.168406

<region>
sample=Harpsichord, English/Releases/Lute/ZuckermannKitHarpsi_Lute_Rel_D4_rr1.wav
pitch_keycenter=74
lokey=74
hikey=75
volume=-7.411885

<region>
sample=Harpsichord, English/Releases/Lute/ZuckermannKitHarpsi_Lute_Rel_E4_rr1.wav
pitch_keycenter=76
lokey=76
hikey=77
volume=-10.483735

<region>
sample=Harpsichord, English/Releases/Lute/ZuckermannKitHarpsi_Lute_Rel_F#4_rr1.wav
pitch_keycenter=78
lokey=78
hikey=79
volume=-10.225799

<region>
sample=Harpsichord, English/Releases/Lute/ZuckermannKitHarpsi_Lute_Rel_G#4_rr1.wav
pitch_keycenter=80
lokey=80
hikey=81
volume=-6.079718

<region>
sample=Harpsichord, English/Releases/Lute/ZuckermannKitHarpsi_Lute_Rel_A#4_rr1.wav
pitch_keycenter=82
lokey=82
hikey=84
volume=-4.501149

<region>
sample=Harpsichord, English/Releases/Lute/ZuckermannKitHarpsi_Lute_Rel_D5_rr1.wav
pitch_keycenter=86
lokey=85
hikey=87
volume=-10.475509

<region>
sample=Harpsichord, English/Releases/Lute/ZuckermannKitHarpsi_Lute_Rel_E5_rr1.wav
pitch_keycenter=88
lokey=88
hikey=89
volume=-7.232084

